<svg width="24" height="16" viewBox="0 0 24 16" version="1.1" xmlns="http://www.w3.org/2000/svg" xmlns:xlink="http://www.w3.org/1999/xlink">
<title>mail</title>
<desc>Created using Figma</desc>
<g id="Canvas" transform="translate(-3510 83)">
<g id="mail">
<g id="Vector">
<use xlink:href="#path0_fill" transform="translate(3510 -83)" fill="#001F49"/>
</g>
</g>
</g>
<defs>
<path id="path0_fill" d="M 22.6913 8.36073e-08L 0.521638 8.36073e-08L -2.0728e-08 8.36073e-08L -2.0728e-08 0.482177L -2.0728e-08 15.1228L -2.0728e-08 15.605L 0.521638 15.605L 22.7347 15.605L 23.2564 15.605L 23.2564 15.1228L 23.2564 0.482177L 23.2564 8.36073e-08L 22.6913 8.36073e-08ZM 21.3437 1.00819L 13.7799 7.408L 13.2583 7.84634L 11.6065 9.29287L 9.91113 7.84634L 9.38949 7.408L 1.8692 1.00819L 21.3437 1.00819ZM 0.999807 1.57803L 8.30274 7.80251L 0.999807 14.027L 0.999807 1.57803ZM 1.8692 14.6407L 9.0852 8.50385L 9.25908 8.63536L 11.2587 10.3449L 11.6065 10.6079L 11.9542 10.3449L 13.9538 8.63536L 14.1277 8.50385L 21.3437 14.6407L 1.8692 14.6407ZM 22.2131 14.027L 14.9102 7.80251L 22.2131 1.57803L 22.2131 14.027Z"/>
</defs>
</svg>
