<?xml version="1.0" encoding="utf-8"?>
<!-- Generator: Adobe Illustrator 19.1.0, SVG Export Plug-In . SVG Version: 6.00 Build 0)  -->
<svg version="1.1" id="Layer_1" xmlns="http://www.w3.org/2000/svg" xmlns:xlink="http://www.w3.org/1999/xlink" x="0px" y="0px"
	 viewBox="0 0 70 70" style="enable-background:new 0 0 70 70;" xml:space="preserve">
<style type="text/css">
	.st0{fill:#233354;}
	.st1{fill:#D0C9C4;}
	.st2{fill:#FFFFFF;}
</style>
<g>
	<path class="st0" d="M31.4,38.5c0,0,1.4,6.9,2.7,10.2C35.3,52,36.9,56,36.9,61s1.4,7.2,1.4,7.2s0.7-4.5,1.6-6.2
		c1.2-2.3,2.7-3.3,2.7-3.3s1.5,2.6,2.8,3.7c1.3,1.1,6.3,1.1,6.3,1.1s-3.2-3.4-3.8-5.9c-0.7-2.5-0.5-7.9-2.6-11.3
		c-2.1-3.3-4-4.7-5.1-11.4"/>
	<path class="st0" d="M33.2,33.8c0,0-6.4,4.9-8.2,10.4s-1.5,7.9-2.2,11.1c-0.7,3.2-3.9,6.4-3.9,6.4s5.7,0.1,7.1-0.7s2.4-0.7,2.4-0.7
		s-0.6,2.3,0.7,4.6c1.3,2.3,3.2,3.1,3.2,3.1s0.6-4.7,1.4-8.1c1-4.3,1.7-6.5,2-10.2c0.3-3.6,6.1-11.1,6.1-11.1"/>
	<polygon class="st1" points="35.1,3.8 38.8,6.4 43.2,5.1 45.9,8.7 50.4,8.8 51.9,13.1 56.1,14.5 56.2,19.1 59.8,21.8 58.5,26.1 
		61.1,29.8 58.5,33.5 59.8,37.8 56.2,40.6 56.1,45.1 51.9,46.5 50.4,50.8 45.9,50.9 43.2,54.5 38.8,53.2 35.1,55.8 31.4,53.2 
		27.1,54.5 24.4,50.9 19.9,50.8 18.4,46.5 14.1,45.1 14,40.6 10.4,37.8 11.7,33.5 9.1,29.8 11.7,26.1 10.4,21.8 14,19.1 14.1,14.5 
		18.4,13.1 19.9,8.8 24.4,8.7 27.1,5.1 31.4,6.4 	"/>
	<circle class="st2" cx="35.4" cy="29.4" r="19.4"/>
	<path class="st0" d="M47.7,20C47.8,20,47.8,20,47.7,20c0.1,0-5.8,6.8-9.3,11.7s-7,10.9-7,10.9s-1.6-2.6-3.8-5.1s-5.3-5.1-5.3-5.1
		s0.5-0.2,1.2-0.2c0.4,0,0.9,0.1,1.3,0.3c1,0.6,6,3,6,3s2.7-3.3,5.9-6.6c3.2-3.3,6.7-6.8,7.5-7.5C45.7,20.2,47.3,20,47.7,20"/>
	<path class="st0" d="M30.1,51.2c4.7,1.1,9.8,0.8,14.5-1.5c11-5.2,15.7-18.4,10.5-29.4S36.6,4.6,25.6,9.9
		c-11,5.2-15.7,18.4-10.5,29.4c2.2,4.7,6,8.2,10.3,10.3 M28.6,47.7c-8.8-3.2-13.2-13.7-9.7-23.5S32.4,9,41.3,12.1
		c8.8,3.2,13.2,13.7,9.7,23.5C47.5,45.5,37.5,50.9,28.6,47.7z"/>
</g>
</svg>

