<svg width="25" height="26" viewBox="0 0 25 26" version="1.1" xmlns="http://www.w3.org/2000/svg" xmlns:xlink="http://www.w3.org/1999/xlink">
<title>stitching</title>
<desc>Created using Figma</desc>
<g id="Canvas" transform="translate(-3509 -66)">
<g id="stitching">
<g id="stitching">
<g id="Union">
<g id="Group">
<g id="path0 fill">
<use xlink:href="#path0_fill" transform="translate(3509 66)" fill="#001F49"/>
</g>
</g>
</g>
</g>
</g>
</g>
<defs>
<path id="path0_fill" d="M 11.8188 7.00671C 11.8188 6.95863 11.8188 6.86246 11.8188 6.81437C 11.867 6.4297 11.9152 5.90077 12.0116 5.32376C 12.0598 5.03526 12.1563 4.69867 12.2527 4.36208C 10.5171 3.20806 9.40832 1.62127 8.97444 0.755758C 8.87802 0.515336 8.97443 0.274913 9.16727 0.130661C 9.40832 0.034492 9.64936 0.130661 9.79399 0.322998C 10.1315 1.04426 11.0957 2.43871 12.5902 3.44848C 12.6384 3.40039 12.6384 3.30422 12.6866 3.25614C 13.3615 2.10212 14.2293 1.18851 15.1453 0.611503C 16.013 0.0825762 17.2665 -0.302097 18.3271 0.322998C 19.4359 0.948094 19.7252 2.19828 19.677 3.20805C 19.6288 4.07357 19.3877 5.08334 18.9538 5.99694C 21.4125 7.10288 23.7748 8.78583 24.6426 11.4786C 25.9924 15.8061 23.3409 19.5567 19.677 20.4222C 17.7004 20.855 15.9648 20.6626 14.4703 19.7971C 13.1205 19.0278 12.0116 17.7295 10.951 16.0466C 10.5171 16.7678 10.0833 17.4891 9.64937 18.1623C 9.07085 19.0759 8.54054 19.8933 8.10665 20.6626C 7.67277 21.3358 7.2871 21.9128 6.99784 22.3456C 6.70858 22.7784 6.41932 23.163 6.17827 23.4034L 3.47853 26L 4.2981 22.3937C 4.39451 22.0571 4.58735 21.5762 4.78019 21.1435C 5.02124 20.6146 5.31049 19.9895 5.69617 19.2682C 6.3229 17.9699 7.14247 16.4312 7.96203 14.8925L 8.25129 14.3155C 8.44413 13.9308 8.63696 13.5462 8.87801 13.1615C 7.14246 11.3824 5.21408 10.6611 3.57495 11.19C 2.41792 11.5747 1.74298 12.3441 1.3573 13.0653C 1.16447 13.4019 1.06805 13.7385 0.971633 13.9789C 0.971633 14.027 0.97163 14.1232 0.92342 14.1713C 0.92342 14.2194 0.92342 14.2194 0.92342 14.2194C 0.875211 14.4598 0.682369 14.6521 0.393111 14.604C 0.152063 14.5559 -0.0407698 14.3636 0.00743982 14.0751L 0.489536 14.2194C 0.00743983 14.1713 0.00743982 14.1713 0.00743982 14.1713C 0.00743982 14.1713 0.00743982 14.1713 0.00743982 14.1232C 0.00743982 14.1232 0.00743982 14.0751 0.00743982 14.027C 0.00743982 13.9308 0.0556406 13.8347 0.10385 13.6904C 0.20027 13.4019 0.34491 13.0172 0.537749 12.5845C 0.971636 11.719 1.8394 10.7573 3.28569 10.2764C 5.31049 9.60326 7.52814 10.4688 9.3119 12.2479C 9.8422 11.19 10.3243 10.2284 10.7582 9.36284C 11.0957 8.68966 11.3849 8.11265 11.5778 7.63181C 11.6742 7.39139 11.7224 7.24713 11.7706 7.10288C 11.8188 7.0548 11.8188 7.0548 11.8188 7.00671ZM 11.5778 15.2291C 12.6384 17.0563 13.7472 18.3546 15.0006 19.0759C 16.2541 19.7971 17.7004 19.9895 19.5323 19.6048C 22.7142 18.8835 25.0282 15.6138 23.823 11.8151C 23.0999 9.45901 20.9786 7.92031 18.5682 6.86246C 18.2307 7.39139 17.7004 7.87223 17.2665 8.20882C 16.9772 8.44924 16.6398 8.68966 16.3987 8.83392C 16.2541 8.93009 16.1577 9.02625 16.0612 9.07434L 16.013 9.12242L 15.9648 9.1705C 15.9166 9.21859 15.8684 9.26667 15.772 9.31476C 15.6274 9.45901 15.4827 9.60326 15.3381 9.7956C 15.0006 10.2284 14.5667 10.7573 14.1329 11.4305C 13.3615 12.5364 12.4937 13.8828 11.5778 15.2291ZM 13.3133 4.93909C 13.1205 5.66035 13.0723 6.4297 12.9758 6.95863C 12.9758 7.0548 12.9758 7.10288 12.9276 7.15097C 12.9276 7.67989 11.4331 10.613 9.79399 13.7866C 9.50473 14.3155 9.26369 14.8444 8.97444 15.3734C 7.23889 18.6912 5.55154 21.9128 5.40691 22.6341C 5.8408 22.2013 7.19068 20.0856 8.73339 17.6333C 9.40832 16.5755 10.0833 15.4215 10.8064 14.3636C 12.6866 11.4305 14.5185 8.73775 15.3381 8.20882C 15.4345 8.11265 15.5792 8.01648 15.7238 7.92031C 16.3505 7.48756 17.2183 6.86246 17.6522 6.14119C 18.8092 4.12165 18.9056 2.00595 17.7968 1.33277C 16.688 0.707672 14.856 1.81361 13.699 3.83315C 13.6508 3.88124 13.6026 3.97741 13.6026 4.02549C 13.8918 4.16974 14.1811 4.26591 14.4703 4.36208C 14.5185 4.26591 14.5667 4.16974 14.615 4.12166C 15.3381 2.82338 16.4951 2.10212 17.1701 2.48679C 17.845 2.87146 17.7486 4.21783 17.0254 5.46802C 16.3023 6.76629 15.1453 7.48755 14.4703 7.10288C 13.9882 6.81437 13.8918 6.09311 14.1329 5.2276C 13.8436 5.17951 13.5544 5.03526 13.3133 4.93909ZM 15.0006 5.5161C 14.9524 5.70844 14.9042 5.85269 14.9042 5.99694C 14.9042 6.1412 14.9042 6.23736 14.9042 6.28545C 14.9524 6.28545 15.0488 6.23736 15.1453 6.14119C 15.2899 6.04503 15.4827 5.90078 15.6274 5.70844C 15.4345 5.66035 15.2417 5.61227 15.0006 5.5161ZM 16.2541 4.98717C 16.5433 4.50633 16.6398 4.02549 16.688 3.64081C 16.688 3.49656 16.688 3.40039 16.688 3.35231C 16.6398 3.35231 16.5434 3.40039 16.4469 3.49656C 16.1577 3.6889 15.772 4.07357 15.4345 4.6025C 15.4345 4.65058 15.3863 4.65058 15.3863 4.69867C 15.6274 4.79483 15.9166 4.89101 16.2541 4.98717ZM 16.6398 3.30423C 16.6398 3.30423 16.6398 3.25614 16.6398 3.30423C 16.6398 3.25614 16.6398 3.30423 16.6398 3.30423Z"/>
</defs>
</svg>
