<?xml version="1.0" encoding="utf-8"?>
<!-- Generator: Adobe Illustrator 19.1.0, SVG Export Plug-In . SVG Version: 6.00 Build 0)  -->
<svg version="1.1" id="Layer_1" xmlns="http://www.w3.org/2000/svg" xmlns:xlink="http://www.w3.org/1999/xlink" x="0px" y="0px"
	 viewBox="0 0 70 70" style="enable-background:new 0 0 70 70;" xml:space="preserve">
<style type="text/css">
	.st0{fill:#FFFFFF;}
	.st1{fill:#D0C9C4;}
	.st2{fill:#233354;}
</style>
<rect x="23.5" y="35.9" class="st0" width="23.7" height="22.2"/>
<g>
	<path class="st1" d="M53.3,28.6c-1-1.1-3.2-4.7-5-4.7s-9.6,0.6-13.4,0.7s-14.7-0.7-14.7-0.7s-1.5,1-2.6,2.5c-1,1.5-3.6,6-3.6,6
		s18.5-0.5,25.8,0s16.7,0,16.7,0S54.3,29.7,53.3,28.6z"/>
	<path id="lock-3-icon_1_" class="st2" d="M47.2,30.3c-1-0.1-2.6-0.4-2.6-1.9v-8.2c0-1.7-0.2-4.6-1.1-5.9c-1.4-2.1-5.4-3.9-8.1-3.9
		c-4.4,0-9,2.7-9.2,9.8v3v5.3c0,1.2-1.9,1.9-2.9,1.9s-2.4-0.5-2.4-1.9c0,0,0-1.6,0.1-4.4c0.1-3-0.1-3.8-0.1-3.8
		c0-4.7,2.4-9,5.8-11.6c3.3-2.6,5.5-3,8.8-3c3,0,5.8,0.9,8.1,2.5c4.3,2.9,6.4,5.9,6.4,10.9c0,0-0.1,2.6,0,5.4c0.1,2.6,0,4,0,4
		C49.8,29.9,48.2,30.4,47.2,30.3z M56.6,32.4c0,0,0.3,3.6,0,8.7c-0.3,5.2,0.1,7.7,0.1,13.5c0,5.9-0.1,7.8-0.1,7.8s-3.4,0.9-10.9,1.2
		c-7.2,0.3-11.4,0.2-19,0s-12.6-1.2-12.6-1.2s0.3-4.1,0-14.1s0-15.9,0-15.9s18.5-0.5,25.8,0S56.6,32.4,56.6,32.4z M39.2,45
		c0-2.1-1.7-3.9-3.9-3.9c-2.2,0-3.9,1.7-3.9,3.9c0,1.1,0.5,2.1,1.2,2.8c0.6,0.6,1,1.4,1,2.3v3.3h3.3v-3.3c0-0.9,0.4-1.7,1-2.3
		C38.7,47.1,39.2,46.1,39.2,45z"/>
</g>
</svg>
